<?xml version="1.0" encoding="UTF-8"?>
<svg width="13px" height="13px" viewBox="0 0 13 13" version="1.1" xmlns="http://www.w3.org/2000/svg" xmlns:xlink="http://www.w3.org/1999/xlink">
    <!-- Generator: Sketch 51.2 (57519) - http://www.bohemiancoding.com/sketch -->
    <title>Combined Shape</title>
    <desc>Created with Sketch.</desc>
    <defs></defs>
    <g id="Page-1" stroke="none" stroke-width="1" fill="none" fill-rule="evenodd">
        <g id="Group-22" transform="translate(0.000000, -2.000000)" fill="#28374F" fill-rule="nonzero">
            <path d="M1.5,3.5 L1.5,6.5 L4.5,6.5 L4.5,3.5 L1.5,3.5 Z M0,2 L6,2 L6,8 L0,8 L0,2 Z M0,9 L6,9 L6,15 L0,15 L0,9 Z M7,9 L13,9 L13,15 L7,15 L7,9 Z M7,2 L13,2 L13,8 L7,8 L7,2 Z M8.5,10.5 L8.5,13.5 L11.5,13.5 L11.5,10.5 L8.5,10.5 Z M1.5,10.5 L1.5,13.5 L4.5,13.5 L4.5,10.5 L1.5,10.5 Z" id="Combined-Shape"></path>
        </g>
    </g>
</svg>